<svg id="Flat" height="512" viewBox="0 0 512 512" width="512" xmlns="http://www.w3.org/2000/svg"><path d="m488 304c0 128.13-103.87 184-232 184s-232-55.87-232-184 103.87-280 232-280 232 151.87 232 280z" fill="#ffc70d"/><path d="m256 456c-122.746 0-223.161-51.321-231.389-168.276-.361 5.455-.611 10.892-.611 16.276 0 128.13 103.87 184 232 184s232-55.87 232-184c0-5.384-.25-10.821-.611-16.276-8.228 116.955-108.643 168.276-231.389 168.276z" fill="#f89f00"/><path d="m256 456c-122.746 0-223.161-51.321-231.389-168.276-.361 5.455-.611 10.892-.611 16.276 0 128.13 103.87 184 232 184s232-55.87 232-184c0-5.384-.25-10.821-.611-16.276-8.228 116.955-108.643 168.276-231.389 168.276z" fill="#f89f00"/><g fill="#b46d2f"><path d="m184 224a7.971 7.971 0 0 1 -5.656-2.344l-48-48a8 8 0 0 1 11.312-11.312l48 48a8 8 0 0 1 -5.656 13.656z"/><path d="m136 224a8 8 0 0 1 -5.656-13.656l48-48a8 8 0 0 1 11.312 11.312l-48 48a7.971 7.971 0 0 1 -5.656 2.344z"/><path d="m376 224a7.971 7.971 0 0 1 -5.656-2.344l-48-48a8 8 0 0 1 11.312-11.312l48 48a8 8 0 0 1 -5.656 13.656z"/><path d="m328 224a8 8 0 0 1 -5.656-13.656l48-48a8 8 0 0 1 11.312 11.312l-48 48a7.971 7.971 0 0 1 -5.656 2.344z"/></g><path d="m256 216a24 24 0 0 1 24 24v56a0 0 0 0 1 0 0h-48a0 0 0 0 1 0 0v-56a24 24 0 0 1 24-24z" fill="#483d23"/><path d="m232 264h48v32h-48z" fill="#ef5267"/></svg>