<svg id="Flat" height="512" viewBox="0 0 512 512" width="512" xmlns="http://www.w3.org/2000/svg" xmlns:xlink="http://www.w3.org/1999/xlink"><linearGradient id="linear-gradient" gradientUnits="userSpaceOnUse" x1="256" x2="256" y1="24" y2="488"><stop offset="0" stop-color="#ffc70d"/><stop offset="1" stop-color="#e42e3d"/></linearGradient><path d="m488 304c0 128.13-103.87 184-232 184s-232-55.87-232-184 103.87-280 232-280 232 151.87 232 280z" fill="url(#linear-gradient)"/><path d="m256 456c-122.746 0-223.161-51.321-231.389-168.276-.361 5.455-.611 10.892-.611 16.276 0 128.13 103.87 184 232 184s232-55.87 232-184c0-5.384-.25-10.821-.611-16.276-8.228 116.955-108.643 168.276-231.389 168.276z" fill="#e42e3d"/><circle cx="160" cy="200" fill="#fff" r="24"/><circle cx="160" cy="200" fill="#483d23" r="8"/><circle cx="352" cy="200" fill="#fff" r="24"/><circle cx="352" cy="200" fill="#483d23" r="8"/><path d="m128 192a8 8 0 0 1 0-16c22.184 0 32.7-3.688 40.422-26.555a8 8 0 1 1 15.156 5.11c-11.66 34.554-33.851 37.445-55.578 37.445z" fill="#b46d2f"/><path d="m384 192c-21.727 0-43.918-2.891-55.578-37.445a8 8 0 1 1 15.156-5.11c7.722 22.867 18.238 26.555 40.422 26.555a8 8 0 0 1 0 16z" fill="#b46d2f"/><path d="m224 216v64a32 32 0 0 0 64 0v-64z" fill="#e42e3d"/><path d="m304 224h-96a8 8 0 0 1 0-16h96a8 8 0 0 1 0 16z" fill="#b46d2f"/><g fill="#fff"><circle cx="88" cy="184" r="8"/><circle cx="80" cy="216" r="8"/><circle cx="72" cy="248" r="8"/></g></svg>