<svg id="Flat" height="512" viewBox="0 0 512 512" width="512" xmlns="http://www.w3.org/2000/svg"><path d="m488 304c0 128.13-103.87 184-232 184s-232-55.87-232-184 103.87-280 232-280 232 151.87 232 280z" fill="#ffc70d"/><path d="m256 456c-122.746 0-223.161-51.321-231.389-168.276-.361 5.455-.611 10.892-.611 16.276 0 128.13 103.87 184 232 184s232-55.87 232-184c0-5.384-.25-10.821-.611-16.276-8.228 116.955-108.643 168.276-231.389 168.276z" fill="#f89f00"/><path d="m264 304a8.011 8.011 0 0 1 -4.438-1.344l-24-16a8 8 0 1 1 8.876-13.312l21.762 14.508a16 16 0 0 0 -2.2-31.852 8 8 0 0 1 0-16 16 16 0 0 0 2.195-31.852l-21.757 14.508a8 8 0 1 1 -8.876-13.312l24-16a8.011 8.011 0 0 1 4.438-1.344 31.987 31.987 0 0 1 21.145 56 31.987 31.987 0 0 1 -21.145 56z" fill="#ef5267"/><circle cx="168" cy="184" fill="#fff" r="24"/><circle cx="168" cy="184" fill="#483d23" r="8"/><circle cx="344" cy="184" fill="#fff" r="24"/><circle cx="344" cy="184" fill="#483d23" r="8"/><g fill="#f597a4"><ellipse cx="120" cy="224" rx="24" ry="16"/><ellipse cx="392" cy="224" rx="24" ry="16"/></g></svg>