<svg id="Flat" height="512" viewBox="0 0 512 512" width="512" xmlns="http://www.w3.org/2000/svg"><path d="m488 304c0 128.13-103.87 184-232 184s-232-55.87-232-184 103.87-280 232-280 232 151.87 232 280z" fill="#ffc70d"/><path d="m256 456c-122.746 0-223.161-51.321-231.389-168.276-.361 5.455-.611 10.892-.611 16.276 0 128.13 103.87 184 232 184s232-55.87 232-184c0-5.384-.25-10.821-.611-16.276-8.228 116.955-108.643 168.276-231.389 168.276z" fill="#f89f00"/><circle cx="160" cy="200" fill="#fff" r="24"/><circle cx="160" cy="200" fill="#483d23" r="8"/><circle cx="352" cy="200" fill="#fff" r="24"/><g fill="#483d23"><circle cx="352" cy="200" r="8"/><path d="m464 192h-64a8 8 0 0 0 0 16h64a8 8 0 0 0 0-16z"/><path d="m112 192h-64a8 8 0 0 0 0 16h64a8 8 0 0 0 0-16z"/><path d="m208 192h96v16h-96z"/></g><path d="m224 264h32v32h-32z" fill="#fff"/><path d="m256 264h32v32h-32z" fill="#fff"/><path d="m248 264h16v32h-16z" fill="#ffc70d"/><path d="m304 272h-96a8 8 0 0 1 0-16h96a8 8 0 0 1 0 16z" fill="#b46d2f"/><path d="m160 256a56 56 0 1 1 56-56 56.068 56.068 0 0 1 -56 56zm0-96a40 40 0 1 0 40 40 40.047 40.047 0 0 0 -40-40z" fill="#483d23"/><path d="m352 256a56 56 0 1 1 56-56 56.068 56.068 0 0 1 -56 56zm0-96a40 40 0 1 0 40 40 40.047 40.047 0 0 0 -40-40z" fill="#483d23"/></svg>