<svg id="Flat" height="512" viewBox="0 0 512 512" width="512" xmlns="http://www.w3.org/2000/svg"><path d="m488 304c0 128.13-103.87 184-232 184s-232-55.87-232-184 103.87-280 232-280 232 151.87 232 280z" fill="#ffc70d"/><path d="m256 456c-122.746 0-223.161-51.321-231.389-168.276-.361 5.455-.611 10.892-.611 16.276 0 128.13 103.87 184 232 184s232-55.87 232-184c0-5.384-.25-10.821-.611-16.276-8.228 116.955-108.643 168.276-231.389 168.276z" fill="#f89f00"/><path d="m224 216h64a0 0 0 0 1 0 0v64a32 32 0 0 1 -32 32 32 32 0 0 1 -32-32v-64a0 0 0 0 1 0 0z" fill="#ef5267"/><g fill="#b46d2f"><path d="m144.008 224a8 8 0 0 1 -4.805-14.4l23.461-17.6-23.464-17.6a8 8 0 1 1 9.594-12.8l32 24a7.992 7.992 0 0 1 0 12.8l-32 24a7.929 7.929 0 0 1 -4.786 1.6z"/><path d="m367.992 224a7.929 7.929 0 0 1 -4.789-1.6l-31.992-24a7.992 7.992 0 0 1 0-12.8l31.992-24a8 8 0 1 1 9.594 12.8l-23.461 17.6 23.464 17.6a8 8 0 0 1 -4.805 14.4z"/><path d="m312.889 224h-113.778c-3.93 0-7.111-3.582-7.111-8s3.181-8 7.111-8h113.778c3.93 0 7.111 3.582 7.111 8s-3.181 8-7.111 8z"/></g></svg>