<svg id="Flat" height="512" viewBox="0 0 512 512" width="512" xmlns="http://www.w3.org/2000/svg"><path d="m488 304c0 128.13-103.87 184-232 184s-232-55.87-232-184 103.87-280 232-280 232 151.87 232 280z" fill="#ffc70d"/><g fill="#f89f00"><path d="m256 456c-122.746 0-223.161-51.321-231.389-168.276-.361 5.455-.611 10.892-.611 16.276 0 128.13 103.87 184 232 184s232-55.87 232-184c0-5.384-.25-10.821-.611-16.276-8.228 116.955-108.643 168.276-231.389 168.276z"/><path d="m256 456c-122.746 0-223.161-51.321-231.389-168.276-.361 5.455-.611 10.892-.611 16.276 0 128.13 103.87 184 232 184s232-55.87 232-184c0-5.384-.25-10.821-.611-16.276-8.228 116.955-108.643 168.276-231.389 168.276z"/><path d="m256 456c-122.746 0-223.161-51.321-231.389-168.276-.361 5.455-.611 10.892-.611 16.276 0 128.13 103.87 184 232 184s232-55.87 232-184c0-5.384-.25-10.821-.611-16.276-8.228 116.955-108.643 168.276-231.389 168.276z"/></g><path d="m224 216h64a32 32 0 0 1 32 32 0 0 0 0 1 0 0h-128a0 0 0 0 1 0 0 32 32 0 0 1 32-32z" fill="#483d23"/><path d="m192 248h128a0 0 0 0 1 0 0 32 32 0 0 1 -32 32h-64a32 32 0 0 1 -32-32 0 0 0 0 1 0 0z" fill="#4fb663"/><path d="m168.008 216a8 8 0 0 1 -4.805-14.4l23.461-17.6-23.464-17.6a8 8 0 1 1 9.594-12.8l32 24a7.992 7.992 0 0 1 0 12.8l-32 24a7.929 7.929 0 0 1 -4.786 1.6z" fill="#b46d2f"/><path d="m343.992 216a7.929 7.929 0 0 1 -4.789-1.6l-32-24a7.992 7.992 0 0 1 0-12.8l32-24a8 8 0 1 1 9.594 12.8l-23.461 17.6 23.464 17.6a8 8 0 0 1 -4.805 14.4z" fill="#b46d2f"/><path d="m200 484.11a405.03 405.03 0 0 0 112 0v-236.11h-112z" fill="#4fb663"/></svg>