<svg id="Flat" height="512" viewBox="0 0 512 512" width="512" xmlns="http://www.w3.org/2000/svg"><path d="m488 304c0 128.13-103.87 184-232 184s-232-55.87-232-184 103.87-280 232-280 232 151.87 232 280z" fill="#ffc70d"/><path d="m256 456c-122.746 0-223.161-51.321-231.389-168.276-.361 5.455-.611 10.892-.611 16.276 0 128.13 103.87 184 232 184s232-55.87 232-184c0-5.384-.25-10.821-.611-16.276-8.228 116.955-108.643 168.276-231.389 168.276z" fill="#f89f00"/><circle cx="168" cy="200" fill="#fff" r="24"/><circle cx="168" cy="200" fill="#483d23" r="8"/><circle cx="344" cy="200" fill="#fff" r="24"/><g fill="#483d23"><circle cx="344" cy="200" r="8"/><path d="m184 160h-32a8 8 0 0 1 0-16h32a8 8 0 0 1 0 16z"/><path d="m360 160h-32a8 8 0 0 1 0-16h32a8 8 0 0 1 0 16z"/></g><path d="m287.992 288a7.949 7.949 0 0 1 -4.789-1.6l-64-48a8 8 0 1 1 9.594-12.8l64 48a8 8 0 0 1 -4.805 14.4z" fill="#b46d2f"/><path d="m224.008 288a8 8 0 0 1 -4.805-14.4l64-48a8 8 0 0 1 9.594 12.8l-64 48a7.949 7.949 0 0 1 -4.789 1.6z" fill="#b46d2f"/></svg>