<svg id="Flat" height="512" viewBox="0 0 512 512" width="512" xmlns="http://www.w3.org/2000/svg"><path d="m488 304c0 128.13-103.87 184-232 184s-232-55.87-232-184 103.87-280 232-280 232 151.87 232 280z" fill="#ffc70d"/><path d="m256 456c-122.746 0-223.161-51.321-231.389-168.276-.361 5.455-.611 10.892-.611 16.276 0 128.13 103.87 184 232 184s232-55.87 232-184c0-5.384-.25-10.821-.611-16.276-8.228 116.955-108.643 168.276-231.389 168.276z" fill="#f89f00"/><path d="m168 192a24.027 24.027 0 0 1 -24-24 8 8 0 0 1 16 0 8 8 0 0 0 16 0 8 8 0 0 1 16 0 24.027 24.027 0 0 1 -24 24z" fill="#b46d2f"/><path d="m344 192a24.027 24.027 0 0 1 -24-24 8 8 0 0 1 16 0 8 8 0 0 0 16 0 8 8 0 0 1 16 0 24.027 24.027 0 0 1 -24 24z" fill="#b46d2f"/><path d="m488.992 296.062-128-16a7.624 7.624 0 0 0 -.992.078v-40.14a8.417 8.417 0 0 0 1.059-.069l120-16a8 8 0 0 0 -2.118-15.86l-120 16a7.527 7.527 0 0 0 -.945.326 15.932 15.932 0 0 0 -14-8.4h-175.996a15.932 15.932 0 0 0 -14 8.4 7.527 7.527 0 0 0 -.945-.326l-120-16a8 8 0 0 0 -2.118 15.86l120 16a8.417 8.417 0 0 0 1.063.069v40.142a7.453 7.453 0 0 0 -.992-.079l-128 16a8 8 0 0 0 .98 15.937 8.727 8.727 0 0 0 1-.062l127.014-15.877a16 16 0 0 0 15.998 15.939h176a16 16 0 0 0 15.994-15.939l127.014 15.877a8.727 8.727 0 0 0 1 .062 8 8 0 0 0 .98-15.938z" fill="#fff"/></svg>