<svg id="Flat" height="512" viewBox="0 0 512 512" width="512" xmlns="http://www.w3.org/2000/svg"><path d="m488 304c0 128.13-103.87 184-232 184s-232-55.87-232-184 103.87-280 232-280 232 151.87 232 280z" fill="#ffc70d"/><path d="m256 456c-122.746 0-223.161-51.321-231.389-168.276-.361 5.455-.611 10.892-.611 16.276 0 128.13 103.87 184 232 184s232-55.87 232-184c0-5.384-.25-10.821-.611-16.276-8.228 116.955-108.643 168.276-231.389 168.276z" fill="#f89f00"/><g fill="#b46d2f"><path d="m152 208a8 8 0 0 1 0-16c22.184 0 32.7-3.688 40.422-26.555a8 8 0 1 1 15.156 5.11c-11.66 34.554-33.851 37.445-55.578 37.445z"/><path d="m360 208c-21.727 0-43.918-2.891-55.578-37.445a8 8 0 1 1 15.156-5.11c7.722 22.867 18.238 26.555 40.422 26.555a8 8 0 0 1 0 16z"/><path d="m288 272a8 8 0 0 1 -8-8 24 24 0 0 0 -48 0 8 8 0 0 1 -16 0 40 40 0 0 1 80 0 8 8 0 0 1 -8 8z"/></g></svg>