<svg id="Flat" height="512" viewBox="0 0 512 512" width="512" xmlns="http://www.w3.org/2000/svg" xmlns:xlink="http://www.w3.org/1999/xlink"><linearGradient id="linear-gradient" gradientUnits="userSpaceOnUse" x1="256" x2="256" y1="488" y2="24"><stop offset="0" stop-color="#ffc70d"/><stop offset=".768" stop-color="#5cbda7"/><stop offset=".891" stop-color="#34a7cc"/><stop offset="1" stop-color="#008afd"/></linearGradient><path d="m488 304c0 128.13-103.87 184-232 184s-232-55.87-232-184 103.87-280 232-280 232 151.87 232 280z" fill="url(#linear-gradient)"/><path d="m256 456c-122.746 0-223.161-51.321-231.389-168.276-.361 5.455-.611 10.892-.611 16.276 0 128.13 103.87 184 232 184s232-55.87 232-184c0-5.384-.25-10.821-.611-16.276-8.228 116.955-108.643 168.276-231.389 168.276z" fill="#f89f00"/><path d="m288 240h-48a8 8 0 0 1 0-16h48a8 8 0 0 1 0 16z" fill="#b46d2f"/><path d="m136 205.333c0 22.092-7.163 26.667-16 26.667s-16-1.909-16-24 16-56 16-56 16 31.242 16 53.333z" fill="#fff"/><circle cx="192" cy="200" fill="#fff" r="24"/><circle cx="192" cy="200" fill="#483d23" r="8"/><circle cx="336" cy="200" fill="#fff" r="24"/><circle cx="336" cy="200" fill="#483d23" r="8"/></svg>