<svg id="Flat" height="512" viewBox="0 0 512 512" width="512" xmlns="http://www.w3.org/2000/svg"><path d="m488 304c0 128.13-103.87 184-232 184s-232-55.87-232-184 103.87-280 232-280 232 151.87 232 280z" fill="#ffc70d"/><path d="m256 456c-122.746 0-223.161-51.321-231.389-168.276-.361 5.455-.611 10.892-.611 16.276 0 128.13 103.87 184 232 184s232-55.87 232-184c0-5.384-.25-10.821-.611-16.276-8.228 116.955-108.643 168.276-231.389 168.276z" fill="#f89f00"/><circle cx="160" cy="200" fill="#fff" r="24"/><circle cx="160" cy="200" fill="#483d23" r="8"/><circle cx="352" cy="200" fill="#fff" r="24"/><circle cx="352" cy="200" fill="#483d23" r="8"/><path d="m256 272c-11.406 0-18.754-5.266-24.66-9.5-5.07-3.633-9.074-6.5-15.34-6.5h-24a8 8 0 0 1 0-16h24c11.406 0 18.754 5.266 24.66 9.5 5.07 3.633 9.074 6.5 15.34 6.5 12.715 0 18.781-6.047 26.457-13.7 8.176-8.152 18.352-18.3 37.543-18.3a8 8 0 0 1 0 16c-12.574 0-18.609 6.016-26.246 13.633-8.207 8.179-18.422 18.367-37.754 18.367z" fill="#b46d2f"/><g fill="#483d23"><path d="m176 160h-32a8 8 0 0 1 0-16h32a8.008 8.008 0 0 0 8-8 8 8 0 0 1 16 0 24.027 24.027 0 0 1 -24 24z"/><path d="m368 160h-32a24.027 24.027 0 0 1 -24-24 8 8 0 0 1 16 0 8.008 8.008 0 0 0 8 8h32a8 8 0 0 1 0 16z"/></g></svg>